<svg width="57" height="47" viewBox="0 0 57 47" fill="none" xmlns="http://www.w3.org/2000/svg">
<path d="M27.9105 46C-6.92816 46 -1.74913 19.1704 9.2267 9.09531C9.29672 9.03104 9.3565 8.95888 9.40621 8.87787L14.1932 1.078C14.5309 0.527801 15.2937 0.436958 15.7511 0.892458L19.3676 4.4935C19.6716 4.79621 20.1325 4.8672 20.5297 4.70497C25.1398 2.82179 32.0127 3.91979 35.433 4.85393C35.7556 4.94203 36.0989 4.87213 36.3563 4.65859L40.9576 0.84053C41.4671 0.417733 42.2379 0.599131 42.5078 1.20374L45.9003 8.80432C45.9579 8.93331 46.0428 9.0489 46.1476 9.14362C60.5662 22.1759 62.7313 46 27.9105 46Z" fill="white" stroke="black"/>
</svg>
