<svg width="13" height="4" viewBox="0 0 13 4" fill="none" xmlns="http://www.w3.org/2000/svg">
<path fill-rule="evenodd" clip-rule="evenodd" d="M6.49295 2.19901C5.38908 3.51954 4.16059 3.9593 3.0117 3.87191C1.76817 3.77732 0.721868 3.07252 0.133119 2.46421C-0.058927 2.26578 -0.0537544 1.94924 0.144672 1.75719C0.343098 1.56515 0.659639 1.57032 0.851684 1.76875C1.32844 2.26135 2.1601 2.80424 3.08754 2.87479C3.96737 2.94171 5.03967 2.59185 6.0749 1.09777C6.17334 0.955697 6.3322 0.880411 6.49294 0.882536C6.65369 0.880411 6.81255 0.955697 6.91099 1.09777C7.94622 2.59185 9.01852 2.94171 9.89835 2.87479C10.8258 2.80424 11.6574 2.26135 12.1342 1.76875C12.3263 1.57032 12.6428 1.56515 12.8412 1.75719C13.0396 1.94924 13.0448 2.26578 12.8528 2.46421C12.264 3.07252 11.2177 3.77732 9.97419 3.87191C8.8253 3.9593 7.59681 3.51954 6.49295 2.19901Z" fill="black"/>
</svg>
